PathFileType	4	(X/Y/Z)	D:\Research_projects\MuscleProsody\BulkSports2Dtrack\RetrackedSports2D\p1_sample60_cam2\p1_sample60_cam2_Sports2D\p1_sample60_cam2_Sports2D_px_person00.trc
DataRate	CameraRate	NumFrames	NumMarkers	Units	OrigDataRate	OrigDataStartFrame	OrigNumFrames
60	60	5	22	m	60	682	780
Frame#	Time	Hip			RHip			RKnee			RAnkle			RBigToe			RSmallToe			RHeel			LHip			LKnee			LAnkle			LBigToe			LSmallToe			LHeel			Neck			Head			Nose			RShoulder			RElbow			RWrist			LShoulder			LElbow			LWrist		
		X1	Y1	Z1	X2	Y2	Z2	X3	Y3	Z3	X4	Y4	Z4	X5	Y5	Z5	X6	Y6	Z6	X7	Y7	Z7	X8	Y8	Z8	X9	Y9	Z9	X10	Y10	Z10	X11	Y11	Z11	X12	Y12	Z12	X13	Y13	Z13	X14	Y14	Z14	X15	Y15	Z15	X16	Y16	Z16	X17	Y17	Z17	X18	Y18	Z18	X19	Y19	Z19	X20	Y20	Z20	X21	Y21	Z21	X22	Y22	Z22
682	11.366666666666667	247.62122094430424	515.4864126617972	0.0	220.04264259941525	518.3464927955617	0.0	218.64365369319918	634.6026042188835	0.0	222.26439730100984	729.1982969586165	0.0	220.1104130584299	766.3696551784083	0.0	204.1016911513851	760.6986452753905	0.0	228.2783547427448	739.4620056986937	0.0	275.519947153251	521.0530333189017	0.0	269.02202467585954	634.8599650434753	0.0	268.2743944318819	730.8250533558711	0.0	266.9308158038474	768.1097618679496	0.0	283.01920239490227	763.1586376009128	0.0	264.87879741327896	740.3243900738652	0.0	249.76982511796217	330.62561682607645	0.0	239.88086351529634	248.6731273773391	0.0	234.48153335218657	294.2335047522249	0.0	200.8129757491667	364.11144693512097	0.0	164.4909464332067	418.72917669906354	0.0	137.95712690138103	440.0011419808369	0.0	305.5834913002425	360.03140358740654	0.0	320.3106714378905	437.5723951672122	0.0	301.3464445611588	497.85505283320606	0.0
683	11.383333333333333	247.3109327864962	515.5708913631709	0.0	219.6876806624574	518.5812614179889	0.0	218.56059282492555	634.8305591522691	0.0	222.2598460210878	729.2909799817929	0.0	220.24582754522245	766.3327662282145	0.0	204.42045312475753	760.6274405560841	0.0	228.28418099785452	739.7149361191965	0.0	275.29088865889435	521.1738333728438	0.0	268.91107356788586	634.9909187944525	0.0	268.2006870858732	731.0591999970309	0.0	266.89342368046806	768.3708333261403	0.0	283.13848227216005	763.3542916783882	0.0	264.8493563954179	740.4242942867946	0.0	249.8442912870932	330.6201884351415	0.0	240.0438119060323	248.69841457462726	0.0	234.58857680727684	294.15078856181225	0.0	200.88282714825309	364.08766089181694	0.0	165.94444909719493	419.8801817840862	0.0	145.6538640326695	442.5465352925803	0.0	305.61147475682264	360.24306489763217	0.0	319.7469427568642	437.9547589596718	0.0	300.60942788344164	497.7703250857921	0.0
684	11.4	247.0055519249451	515.710299982149	0.0	219.3230330015817	518.9255714285038	0.0	218.49344052457485	635.0702369209735	0.0	222.25662836351532	729.3911111086383	0.0	220.38278628499825	766.2901802922094	0.0	204.70841706142943	760.5824904901282	0.0	228.26502002521175	739.9560271509582	0.0	275.07078975129843	521.3816576235037	0.0	268.8116262427345	635.1655870801351	0.0	268.14669157624223	731.3127946840112	0.0	266.88727649827075	768.6103066239385	0.0	283.29243691642466	763.5552483326087	0.0	264.8206346112168	740.5416423529887	0.0	249.88676808176692	330.6599200562726	0.0	240.23709246907143	248.74990410165748	0.0	234.69056789966695	294.0610227172899	0.0	200.944052111665	364.1071083072506	0.0	167.2921071069378	421.4664602164985	0.0	153.04891628739716	445.8620018470391	0.0	305.6426175091316	360.4485449429705	0.0	319.20684876501264	438.3487694863915	0.0	299.9604667044468	497.7496338230816	0.0
685	11.416666666666666	246.7077125502963	515.8986065118148	0.0	218.95137834567004	519.35511201268	0.0	218.43226126457816	635.3020090619857	0.0	222.25440962167966	729.479251524033	0.0	220.51159106671614	766.2493462661446	0.0	204.95419159031556	760.5626975667753	0.0	228.2292105135511	740.1522288948765	0.0	274.85120944108064	521.6637123248722	0.0	268.72272648122026	635.3703323163618	0.0	268.1198317068824	731.5528907682769	0.0	266.92528480661093	768.8165578399268	0.0	283.481504164559	763.7407854197454	0.0	264.79202719438774	740.6513445832477	0.0	249.90422593265757	330.75465926754197	0.0	240.4450317053487	248.83101222035964	0.0	234.77346710061408	293.9691512781539	0.0	200.99590782863945	364.16828193999993	0.0	168.61355385824334	423.4419196755076	0.0	160.10378932487285	449.91690623635793	0.0	305.67479886301777	360.6464543327159	0.0	318.7090744852248	438.75205314477387	0.0	299.4156414716383	497.82209480278175	0.0
686	11.433333333333334	246.42296850961046	516.1186190631237	0.0	218.58097067704713	519.8318925343098	0.0	218.3709871725141	635.5042115709225	0.0	222.24987329265883	729.5357424306504	0.0	220.61846745541936	766.2130800603312	0.0	205.14522162599332	760.5596604339515	0.0	228.18573576368226	740.2751281995891	0.0	274.62822977171203	521.9938528861201	0.0	268.64587893000146	635.5873334133997	0.0	268.1265888957871	731.7439851142304	0.0	267.00901030907636	768.9811520528232	0.0	283.6987247622388	763.8931534270981	0.0	264.7655954076898	740.7258563695057	0.0	249.90772229330645	330.90630323046287	0.0	240.64794881234468	248.9376357928477	0.0	234.8232176289813	293.8807707611115	0.0	201.03919306805608	364.26119394178363	0.0	169.9976735585296	425.71905041014185	0.0	166.79125638212312	454.62791656893137	0.0	305.704752823439	360.83299200444606	0.0	318.2684407799454	439.1627858910381	0.0	298.98556032517786	498.01416056118444	0.0
